# xmcd
#
# Track frame offsets: 
#        150
#        13208
#        24753
#        35309
#        45271
#        54608
#        65250
#        76129
#        89330
#        100150
#        110510
#        123856
#        134639
#        145155
#        154831
#        167177
#        177607
#        187869
#        200740
#        210290
#        220054
#        230870
#        240952
#        252689
#        264048
#        276265
#        289400
#
# Disc length: 4014 seconds
#
# Revision: 2
# Processed by: cddbd v1.5.2PL0 Copyright (c) Steve Scherf et al.
# Submitted via: ExactAudioCopyFreeDBPlugin 1.0
#
DISCID=800fac1b
DTITLE=Waylon Jennings - The Journey - Destiny's Child - Vol. 5
DYEAR=1999
DGENRE=Country
TTITLE0=Money Cannot Make The Man
TTITLE1=Yes, Virginia
TTITLE2=If The Shoe Fits
TTITLE3=Young Widow Brown
TTITLE4=John's Back In Town
TTITLE5=Down Came The World
TTITLE6=Mental Revenge
TTITLE7=The Road
TTITLE8=Woman, Don't You Ever Laugh At Me
TTITLE9=California Sunshine
TTITLE10=Love Of The Common People
TTITLE11=You've Got To Hide Your Love Away
TTITLE12=Two Streaks Of Steel
TTITLE13=Destiny's Child
TTITLE14=Shutting Out The Light
TTITLE15=Don't Waste Your Time
TTITLE16=It's All Over Now
TTITLE17=Lock, Stock And Teardrops
TTITLE18=The Chokin' Kind
TTITLE19=I Fall In Love So Easily
TTITLE20=She Loves Me (She Don't Love You)
TTITLE21=Let Me Talk To You
TTITLE22=Long Gone
TTITLE23=The Chokin' Kind
TTITLE24=Just Across The Way
TTITLE25=Listen, They're Playing My Song
TTITLE26=Yes, Virginia
EXTD=
EXTT0=
EXTT1=
EXTT2=
EXTT3=
EXTT4=
EXTT5=
EXTT6=
EXTT7=
EXTT8=
EXTT9=
EXTT10=
EXTT11=
EXTT12=
EXTT13=
EXTT14=
EXTT15=
EXTT16=
EXTT17=
EXTT18=
EXTT19=
EXTT20=
EXTT21=
EXTT22=
EXTT23=
EXTT24=
EXTT25=
EXTT26=
PLAYORDER=
